<svg width="80" height="78" viewBox="0 0 80 78" fill="none" xmlns="http://www.w3.org/2000/svg">
<rect x="40.1016" y="37.7002" width="39" height="39" rx="19.5" fill="white"/>
<path d="M56.3718 63.5171L56.3928 63.536C56.6816 63.7957 57.1216 63.7892 57.4027 63.5211L64.1857 57.0504C64.3342 56.9087 64.3397 56.6735 64.1981 56.5251C64.192 56.5187 64.1857 56.5126 64.1792 56.5066L57.2358 50.1931C56.9461 49.9297 56.5018 49.9363 56.22 50.2081L56.2064 50.2212C55.9401 50.4781 55.9325 50.9022 56.1894 51.1686C56.1994 51.179 56.2098 51.189 56.2204 51.1987L62.3798 56.8092L56.3579 62.5438C56.0927 62.7964 56.0824 63.2161 56.335 63.4813C56.3468 63.4937 56.3591 63.5057 56.3718 63.5171Z" fill="#067A46"/>
<rect x="40.1016" y="37.7002" width="39" height="39" rx="19.5" stroke="#067A46"/>
</svg>
